<svg xmlns="http://www.w3.org/2000/svg" viewBox="0 0 32 32"><g id="approved"><path d="M25.09,4.82,21.94,2.45A2.31,2.31,0,0,0,20.58,2H8.27A2.27,2.27,0,0,0,6,4.27V27.73A2.27,2.27,0,0,0,8.27,30H23.73A2.27,2.27,0,0,0,26,27.73V6.64A2.26,2.26,0,0,0,25.09,4.82Zm-1.2,1.6a.27.27,0,0,1,.11.22V7H21V4.25ZM23.73,28H8.27A.27.27,0,0,1,8,27.73V4.27A.27.27,0,0,1,8.27,4H19V8a1,1,0,0,0,1,1h4V27.73A.27.27,0,0,1,23.73,28Z"/><path d="M21,15H11a1,1,0,0,0,0,2H21a1,1,0,0,0,0-2Z"/><path d="M21,19H11a1,1,0,0,0,0,2H21a1,1,0,0,0,0-2Z"/><path d="M21,23H11a1,1,0,0,0,0,2H21a1,1,0,0,0,0-2Z"/><path d="M11,12.32,11.39,11h2.44l.31.51a1,1,0,1,0,1.72-1l-3-5a1,1,0,0,0-1.81.19l-2,6A1,1,0,0,0,9.68,13,1.25,1.25,0,0,0,10,13,1,1,0,0,0,11,12.32ZM12.63,9h-.58l.21-.62Z"/></g></svg>