<svg xmlns="http://www.w3.org/2000/svg" viewBox="0 0 32 32"><g id="bag"><path d="M21,19H11a1,1,0,0,0-1,1v2.33a4.23,4.23,0,0,0,2.29,3.78A8.52,8.52,0,0,0,16,27a8.15,8.15,0,0,0,3.64-.86A4.24,4.24,0,0,0,22,22.32V20A1,1,0,0,0,21,19Zm-1,3.32a2.25,2.25,0,0,1-1.25,2A6.17,6.17,0,0,1,16,25a6.58,6.58,0,0,1-2.82-.68,2.2,2.2,0,0,1-1.18-2V21h8Z"/><path d="M15.29,14.71a1,1,0,0,0,1.42,0l2-2a1,1,0,0,0,0-1.42l-2-2a1,1,0,0,0-1.42,0l-2,2a1,1,0,0,0,0,1.42Zm.71-3.3.59.59-.59.59L15.41,12Z"/><path d="M27.81,19H26V12.55A6.55,6.55,0,0,0,20,6V6a4,4,0,0,0-8,0V6a6.55,6.55,0,0,0-6,6.52V19H4.19A2.19,2.19,0,0,0,2,21.19V22a5,5,0,0,0,4,4.9A3.32,3.32,0,0,0,9.33,30H22.67A3.32,3.32,0,0,0,26,26.9,5,5,0,0,0,30,22v-.81A2.19,2.19,0,0,0,27.81,19ZM16,4a2,2,0,0,1,2,2H14A2,2,0,0,1,16,4ZM4,22v-.81A.18.18,0,0,1,4.19,21H6v3.83A3,3,0,0,1,4,22Zm20,4.67A1.32,1.32,0,0,1,22.67,28H9.33A1.32,1.32,0,0,1,8,26.67V12.55A4.55,4.55,0,0,1,12.55,8h6.9A4.55,4.55,0,0,1,24,12.55V26.67ZM28,22a3,3,0,0,1-2,2.83V21h1.81a.18.18,0,0,1,.19.19Z"/></g></svg>