<svg xmlns="http://www.w3.org/2000/svg" viewBox="0 0 32 32"><g id="bell"><path d="M16,12a4,4,0,1,0-4,4A4,4,0,0,0,16,12Zm-6,0a2,2,0,1,1,2,2A2,2,0,0,1,10,12Z"/><path d="M30,19a4,4,0,1,0-5,3.86v1.79A1.36,1.36,0,0,1,23.65,26H19.77a3.18,3.18,0,0,0-2.95-2H15V21.54a10,10,0,1,0-6,0V24H7.18A3.19,3.19,0,0,0,4,27.18V29a1,1,0,0,0,1,1H19a1,1,0,0,0,1-1V28h3.65A3.35,3.35,0,0,0,27,24.65V22.86A4,4,0,0,0,30,19ZM4,12a8,8,0,1,1,8,8A8,8,0,0,1,4,12Zm7,10c.33,0,.66.05,1,.05s.67,0,1-.05V24H11ZM18,28H6v-.82A1.18,1.18,0,0,1,7.18,26h9.64A1.18,1.18,0,0,1,18,27.18Zm8-7a2,2,0,1,1,2-2A2,2,0,0,1,26,21Z"/></g></svg>