<svg xmlns="http://www.w3.org/2000/svg" viewBox="0 0 32 32"><g id="board"><path d="M29,2H3A1,1,0,0,0,2,3V6A1,1,0,0,0,3,7V20.56A2.44,2.44,0,0,0,5.44,23h4l-2.4,5.61a1,1,0,0,0,.53,1.31A1,1,0,0,0,8,30a1,1,0,0,0,.92-.61L10,27h12.1l1,2.4A1,1,0,0,0,24,30a1,1,0,0,0,.39-.08,1,1,0,0,0,.53-1.31L22.52,23h4A2.44,2.44,0,0,0,29,20.56V7a1,1,0,0,0,1-1V3A1,1,0,0,0,29,2ZM4,4H28V5H4ZM21.2,25H10.8l.86-2h8.68ZM27,20.56a.44.44,0,0,1-.44.44H5.44A.44.44,0,0,1,5,20.56V7H27Z"/><path d="M11,18a4,4,0,1,0-4-4A4,4,0,0,0,11,18Zm0-6a2.09,2.09,0,0,1,.51.07l-1.22,1.22a1,1,0,0,0,0,1.42,1,1,0,0,0,1.42,0l1.22-1.22A2.09,2.09,0,0,1,13,14a2,2,0,1,1-2-2Z"/><path d="M20,13h4a1,1,0,0,0,0-2H20a1,1,0,0,0,0,2Z"/><path d="M18,17h6a1,1,0,0,0,0-2H18a1,1,0,0,0,0,2Z"/></g></svg>