<svg xmlns="http://www.w3.org/2000/svg" viewBox="0 0 32 32"><g id="book"><path d="M24.18,4H23V3.72A1.72,1.72,0,0,0,21.28,2H18.72A1.72,1.72,0,0,0,17,3.72V4H10.5A3.5,3.5,0,0,0,7,7.5V27a1,1,0,0,0,.17.53A3.5,3.5,0,0,0,10.5,30H25a1,1,0,0,0,1-1V5.82A1.83,1.83,0,0,0,24.18,4ZM19,4h2V7.38l-.55-.27a1,1,0,0,0-.9,0L19,7.38ZM10.5,6H17V9a1,1,0,0,0,1.45.89L20,9.12l1.55.77A1,1,0,0,0,22,10a1,1,0,0,0,.53-.15A1,1,0,0,0,23,9V6h1V23H10.5a3.45,3.45,0,0,0-1.5.35V7.5A1.5,1.5,0,0,1,10.5,6ZM24,28H10.5a1.5,1.5,0,0,1,0-3H24Z"/><path d="M14,14h5a1,1,0,0,0,0-2H14a1,1,0,0,0,0,2Z"/><path d="M13,17h7a1,1,0,0,0,0-2H13a1,1,0,0,0,0,2Z"/></g></svg>