<svg xmlns="http://www.w3.org/2000/svg" viewBox="0 0 32 32"><g id="certificate"><path d="M27.71,7.85a2.23,2.23,0,0,0-1-1.62L20.87,2.36a2.3,2.3,0,0,0-3.34.93A85.35,85.35,0,0,1,13.31,11a2.12,2.12,0,0,0-1.77.95l-1,1.46a2.14,2.14,0,0,0-.19,2,84,84,0,0,1-5.44,6.89A2.3,2.3,0,0,0,5.4,25.7l5.84,3.87A2.25,2.25,0,0,0,12.5,30a2.55,2.55,0,0,0,.61-.08,2.34,2.34,0,0,0,1.47-1.23c1.07-2.22,2.25-4.41,3.51-6.52l4.09,2.7a1,1,0,0,0,.55.17,1,1,0,0,0,.48-.12,1,1,0,0,0,.52-.88V21.05l2.71-1.14a1,1,0,0,0,.17-1.76l-4.09-2.7c1.47-2,3-3.94,4.66-5.8A2.27,2.27,0,0,0,27.71,7.85ZM19.33,4.16a.34.34,0,0,1,.2-.17.32.32,0,0,1,.24,0l.52.35A84.55,84.55,0,0,1,16,12.32l-.83-.55C16.67,9.31,18.07,6.76,19.33,4.16ZM12.24,14.48l1-1.45a.13.13,0,0,1,.18,0l6.46,4.28a.13.13,0,0,1,0,.17l-1,1.46a.13.13,0,0,1-.18,0l-4.06-2.69h0l-2.4-1.58A.13.13,0,0,1,12.24,14.48Zm-5.8,9.11a84.63,84.63,0,0,0,5.4-6.82l.84.55A83.56,83.56,0,0,1,7,24.38L6.51,24a.26.26,0,0,1-.13-.21A.27.27,0,0,1,6.44,23.59Zm6.34,4.18a.37.37,0,0,1-.2.17.32.32,0,0,1-.24,0L8.71,25.5a84.68,84.68,0,0,0,5.63-7.07l2.56,1.69a1,1,0,0,0-.15.35C15.32,22.83,14,25.28,12.78,27.77Zm9.55-8.31a1,1,0,0,0-.61.93v1.73l-2.06-1.36a2.17,2.17,0,0,0,.9-.75l1-1.46a2.11,2.11,0,0,0,.35-1.12l2.05,1.36ZM25.66,8.33c-1.82,2.08-3.56,4.27-5.18,6.52a1,1,0,0,0-.27.27l-2.55-1.69A87,87,0,0,0,22,5.49l3.63,2.4a.33.33,0,0,1,.13.22A.26.26,0,0,1,25.66,8.33Z"/></g></svg>