<svg xmlns="http://www.w3.org/2000/svg" viewBox="0 0 32 32"><g id="chemistry"><path d="M14,5H3A1,1,0,0,0,3,7H4V23.5a4.5,4.5,0,0,0,9,0V7h1a1,1,0,0,0,0-2ZM11,9H9a1,1,0,0,0,0,2h2v2H9a1,1,0,0,0,0,2h2v2H9a1,1,0,0,0,0,2h2v2H9a1,1,0,0,0,0,2h2v.5a2.5,2.5,0,0,1-5,0V7h5Z"/><path d="M27,15.28,27,10h1a1,1,0,0,0,0-2H18a1,1,0,0,0,0,2h1l0,5.26a7,7,0,1,0,8,0ZM25,10l0,5.41a.66.66,0,0,0,0,.15,1,1,0,0,0,.45,1.11A4.89,4.89,0,0,1,27,18H19a4.89,4.89,0,0,1,1.49-1.33,1,1,0,0,0,.48-.8,1.06,1.06,0,0,0,0-.19L21,10ZM23,26a5,5,0,0,1-5-5,5.57,5.57,0,0,1,.11-1h9.78A5.57,5.57,0,0,1,28,21,5,5,0,0,1,23,26Z"/><path d="M21,21h0a1,1,0,1,0,1,1A1,1,0,0,0,21,21Z"/><path d="M25,22h0a1,1,0,1,0,1,1A1,1,0,0,0,25,22Z"/></g></svg>