<svg xmlns="http://www.w3.org/2000/svg" viewBox="0 0 32 32"><g id="clock"><path d="M16,2A14,14,0,1,0,30,16,14,14,0,0,0,16,2Zm0,26A12,12,0,1,1,28,16,12,12,0,0,1,16,28Z"/><path d="M16,11a1,1,0,0,0-1,1v3.59l-2.71,2.7a1,1,0,0,0,0,1.42,1,1,0,0,0,1.42,0l3-3A1,1,0,0,0,17,16V12A1,1,0,0,0,16,11Z"/><path d="M16,5a1,1,0,0,0-1,1V7a1,1,0,0,0,2,0V6A1,1,0,0,0,16,5Z"/><path d="M16,24a1,1,0,0,0-1,1v1a1,1,0,0,0,2,0V25A1,1,0,0,0,16,24Z"/><path d="M26,15H25a1,1,0,0,0,0,2h1a1,1,0,0,0,0-2Z"/><path d="M7,15H6a1,1,0,0,0,0,2H7a1,1,0,0,0,0-2Z"/></g></svg>