<svg xmlns="http://www.w3.org/2000/svg" viewBox="0 0 32 32"><g id="desk_chair" data-name="desk chair"><path d="M27,18H25V13a2.15,2.15,0,0,0,1.85-2.37l-.74-6.68A2.16,2.16,0,0,0,24,2H12A2.16,2.16,0,0,0,9.89,3.91L9.12,10H5.88A1.76,1.76,0,0,0,4,11.66v6.18A4.15,4.15,0,0,0,8,22v0a1,1,0,0,0,1,1v5.12A1.88,1.88,0,0,0,10.88,30h1.24A1.88,1.88,0,0,0,14,28.12V23h8v5.12A1.88,1.88,0,0,0,23.88,30h1.24A1.88,1.88,0,0,0,27,28.12V23a1,1,0,0,0,1-1V19A1,1,0,0,0,27,18Zm-1,3H10V20H26ZM13,18V15h7a1,1,0,0,0,.81-.42,1,1,0,0,0,.14-.9L20.72,13H23v5ZM11.88,4.14A.16.16,0,0,1,12,4H24a.16.16,0,0,1,.16.14l.74,6.68a.16.16,0,0,1-.16.18H20a2.26,2.26,0,0,0-1.93-1H11.14ZM6,12H18.05c.16,0,.24.05.23,0l.33,1H6Zm0,5.84V15h5v3H9a1,1,0,0,0-1,1v1A2.15,2.15,0,0,1,6,17.84ZM12,28H11V23h1Zm13,0H24V23h1Z"/></g></svg>