<svg xmlns="http://www.w3.org/2000/svg" viewBox="0 0 32 32"><g id="discussion"><path d="M7,12h8a1,1,0,0,0,0-2H7a1,1,0,0,0,0,2Z"/><path d="M16,14a1,1,0,0,0-1-1H7a1,1,0,0,0,0,2h8A1,1,0,0,0,16,14Z"/><path d="M27.33,10H20V8.67A2.68,2.68,0,0,0,17.33,6H4.67A2.68,2.68,0,0,0,2,8.67v7.66A2.68,2.68,0,0,0,4.67,19H6v2a1,1,0,0,0,.51.87A1,1,0,0,0,7,22a1,1,0,0,0,.51-.14L12,19.17v1.16A2.68,2.68,0,0,0,14.67,23h5l4.77,2.86A1,1,0,0,0,25,26a1,1,0,0,0,.49-.13A1,1,0,0,0,26,25V23h1.33A2.68,2.68,0,0,0,30,20.33V12.67A2.68,2.68,0,0,0,27.33,10ZM8,19.23V18a1,1,0,0,0-1-1H4.67A.67.67,0,0,1,4,16.33V8.67A.67.67,0,0,1,4.67,8H17.33a.67.67,0,0,1,.67.67v7.66a.67.67,0,0,1-.67.67H12a1,1,0,0,0-.51.14Zm20,1.1a.67.67,0,0,1-.67.67H25a1,1,0,0,0-1,1v1.23l-3.49-2.09A1,1,0,0,0,20,21H14.67a.67.67,0,0,1-.67-.67V19h3.33A2.68,2.68,0,0,0,20,16.33V12h7.33a.67.67,0,0,1,.67.67Z"/></g></svg>