<svg xmlns="http://www.w3.org/2000/svg" viewBox="0 0 32 32"><g id="globe"><path d="M25,25.68A1,1,0,0,0,24,25H19V24a11.92,11.92,0,0,0,6.07-2.25,1,1,0,1,0-1.18-1.62A10,10,0,1,1,12.11,3.92,1,1,0,0,0,10.93,2.3,12,12,0,0,0,17,23.94V25H12a1,1,0,0,0-.95.68l-1,3a1,1,0,0,0,.14.9A1,1,0,0,0,11,30H25a1,1,0,0,0,.81-.42,1,1,0,0,0,.14-.9ZM12.39,28l.33-1H23.28l.33,1Z"/><path d="M27,12a9,9,0,1,0-.13,1.48l0,0a1.07,1.07,0,0,0,.06-.68C27,12.52,27,12.26,27,12Zm-2-.63-.44-.22a3,3,0,0,0-4.21,1.74,1.06,1.06,0,0,1-.51.59l-.43.21a3,3,0,0,0-1.57,2L17,18.76s0,.11,0,.16a6.51,6.51,0,0,1-1.64-.44l1.35-2.71a2.05,2.05,0,0,0-.29-2.29,2.17,2.17,0,0,0-2.29-.62l-3-2.23h0A6.25,6.25,0,0,1,11.3,10h3.12a2.42,2.42,0,0,0,1.7-.7L17,8.42a.4.4,0,0,1,.45-.08,2.4,2.4,0,0,0,3.07-.81l1-1.55A7,7,0,0,1,25,11.37ZM18,5a7,7,0,0,1,1.66.21l-.81,1.21a.38.38,0,0,1-.5.13A2.4,2.4,0,0,0,15.58,7l-.88.88a.36.36,0,0,1-.28.12H12.26A7,7,0,0,1,18,5Zm-6.91,8.07L13,14.46a2.06,2.06,0,0,0,1.9.31l-.31-.95.4,1.06-1.29,2.59A7,7,0,0,1,11.09,13.07Zm8,5.84.7-2.77a1,1,0,0,1,.53-.66l.42-.21a3,3,0,0,0,1.51-1.75,1,1,0,0,1,.58-.62,1,1,0,0,1,.84,0l1.2.6A7,7,0,0,1,19.05,18.91Z"/></g></svg>