<svg xmlns="http://www.w3.org/2000/svg" viewBox="0 0 32 32"><g id="learn"><path d="M29,26H28V24a1,1,0,0,0-.36-.77A9.48,9.48,0,0,0,16,22.75,9.69,9.69,0,0,0,9.94,21a9.68,9.68,0,0,0-5.58,2.23A1,1,0,0,0,4,24v2H3a1,1,0,0,0,0,2H29a1,1,0,0,0,0-2ZM6,24.49A7.58,7.58,0,0,1,10.06,23,7.77,7.77,0,0,1,15,24.49V26H6ZM17,26V24.49A7.71,7.71,0,0,1,21.94,23,7.58,7.58,0,0,1,26,24.49V26Z"/><path d="M13,14.1V17a3,3,0,0,0,6,0V14.1a1.56,1.56,0,0,1,.31-.86,4,4,0,1,0-6.59,0A1.42,1.42,0,0,1,13,14.1ZM16,18a1,1,0,0,1-1-1h2A1,1,0,0,1,16,18ZM14.71,9.47A2,2,0,0,1,16,9a2.31,2.31,0,0,1,.37,0A2,2,0,0,1,18,10.64a2,2,0,0,1-.31,1.48h0a3.48,3.48,0,0,0-.66,2V15H15v-.9a3.37,3.37,0,0,0-.64-1.95A2.06,2.06,0,0,1,14,11,2,2,0,0,1,14.71,9.47Z"/><path d="M8.55,6.89l2,1A.93.93,0,0,0,11,8a1,1,0,0,0,.89-.55,1,1,0,0,0-.44-1.34l-2-1a1,1,0,0,0-.9,1.78Z"/><path d="M21,8a.93.93,0,0,0,.45-.11l2-1a1,1,0,1,0-.9-1.78l-2,1a1,1,0,0,0-.44,1.34A1,1,0,0,0,21,8Z"/><path d="M8,12h2a1,1,0,0,0,0-2H8a1,1,0,0,0,0,2Z"/><path d="M21,11a1,1,0,0,0,1,1h2a1,1,0,0,0,0-2H22A1,1,0,0,0,21,11Z"/><path d="M16,6a1,1,0,0,0,1-1V3a1,1,0,0,0-2,0V5A1,1,0,0,0,16,6Z"/></g></svg>