<svg xmlns="http://www.w3.org/2000/svg" viewBox="0 0 32 32"><g id="locker"><path d="M25.14,2H6.86A1.86,1.86,0,0,0,5,3.86V28.14A1.86,1.86,0,0,0,6.86,30H25.14A1.86,1.86,0,0,0,27,28.14V3.86A1.86,1.86,0,0,0,25.14,2ZM7,4h8V24H7ZM25,28H7V26H25Zm0-4H17V4h8Z"/><path d="M13,6H9A1,1,0,0,0,9,8h4a1,1,0,0,0,0-2Z"/><path d="M13,9H9a1,1,0,0,0,0,2h4a1,1,0,0,0,0-2Z"/><path d="M19,8h4a1,1,0,0,0,0-2H19a1,1,0,0,0,0,2Z"/><path d="M19,11h4a1,1,0,0,0,0-2H19a1,1,0,0,0,0,2Z"/><path d="M13,14a1,1,0,0,0-1,1v1a1,1,0,0,0,2,0V15A1,1,0,0,0,13,14Z"/><path d="M23,14a1,1,0,0,0-1,1v1a1,1,0,0,0,2,0V15A1,1,0,0,0,23,14Z"/></g></svg>