<svg xmlns="http://www.w3.org/2000/svg" viewBox="0 0 32 32"><g id="mortarboard"><path d="M29.36,8.07l-13-5a1,1,0,0,0-.72,0l-13,5a1,1,0,0,0,0,1.86L5,10.85A.8.8,0,0,0,5,11v6a1,1,0,0,0,.45.83A19.38,19.38,0,0,0,16,21a19.81,19.81,0,0,0,6-1v2.15A3,3,0,0,0,20,25v3a1,1,0,0,0,1,1h4a1,1,0,0,0,1-1V25a3,3,0,0,0-2-2.82V19.23a18.46,18.46,0,0,0,2.55-1.4A1,1,0,0,0,27,17V11a.8.8,0,0,0,0-.15l2.39-.92a1,1,0,0,0,0-1.86ZM24,27H22V25a1,1,0,0,1,2,0ZM16,5.07,26.21,9,24,9.86A1,1,0,0,0,23,9H19a1,1,0,0,0,0,2h2l-5,1.93L5.79,9ZM16,19a17.4,17.4,0,0,1-9-2.55V11.61l8.64,3.32a1,1,0,0,0,.72,0L22,12.76V17.9A17.71,17.71,0,0,1,16,19Zm9-2.55c-.33.21-.67.38-1,.56V12l1-.38Z"/></g></svg>