<svg xmlns="http://www.w3.org/2000/svg" viewBox="0 0 32 32"><g id="podium"><path d="M27,28H25V26a1,1,0,0,0-1-1V14h1a1,1,0,0,0,.79-.38,1,1,0,0,0,.18-.86l-.66-2.65A2.78,2.78,0,0,0,22.61,8h-1l.78-1.57a2.51,2.51,0,0,0-.47-2.91L20.71,2.29a1,1,0,0,0-1.42,1.42l1.23,1.22a.53.53,0,0,1,.09.61L19.38,8H17V5a1,1,0,0,0-2,0V8H12.62L11.39,5.54a.53.53,0,0,1,.09-.61l1.23-1.22a1,1,0,1,0-1.42-1.42L10.07,3.52A2.51,2.51,0,0,0,9.6,6.43L10.38,8h-1a2.78,2.78,0,0,0-2.7,2.11L6,12.76a1,1,0,0,0,.18.86A1,1,0,0,0,7,14H8V25a1,1,0,0,0-1,1v2H5a1,1,0,0,0,0,2H27a1,1,0,0,0,0-2ZM8.63,10.59A.78.78,0,0,1,9.39,10H22.61a.78.78,0,0,1,.76.59L23.72,12H8.28ZM10,14H22V25H10ZM9,27H23v1H9Z"/></g></svg>