<svg xmlns="http://www.w3.org/2000/svg" viewBox="0 0 32 32"><g id="school_bus" data-name="school bus"><path d="M25.45,14H25V9.55A4.55,4.55,0,0,0,20.45,5h-16C3.9,5,2,5.25,2,8.48V23a1,1,0,0,0,1,1h1a3.48,3.48,0,0,0,6.78.53A1,1,0,0,0,11,24H21.05A3.48,3.48,0,0,0,28,24H29a1,1,0,0,0,1-1V18.55A4.55,4.55,0,0,0,25.45,14ZM18,14V10h5v4ZM4.35,22H4V16H9v4.35A3.45,3.45,0,0,0,7.5,20,3.5,3.5,0,0,0,4.35,22ZM4,10H9v4H4Zm7,0h5V22H11ZM4.48,7h16a2.55,2.55,0,0,1,2,1H4C4.07,7.47,4.21,7,4.48,7Zm3,18A1.5,1.5,0,1,1,9,23.5,1.5,1.5,0,0,1,7.5,25Zm17,0A1.5,1.5,0,1,1,26,23.5,1.5,1.5,0,0,1,24.5,25ZM28,22h-.35a3.48,3.48,0,0,0-6.3,0H18V16h7.45A2.56,2.56,0,0,1,28,18.55Z"/></g></svg>