<svg xmlns="http://www.w3.org/2000/svg" viewBox="0 0 32 32"><g id="tutorial"><path d="M26.84,3H5.16A3.17,3.17,0,0,0,2,6.16V19.84A3.17,3.17,0,0,0,5.16,23H26.84A3.17,3.17,0,0,0,30,19.84V6.16A3.17,3.17,0,0,0,26.84,3ZM28,19.84A1.16,1.16,0,0,1,26.84,21H5.16A1.16,1.16,0,0,1,4,19.84V6.16A1.16,1.16,0,0,1,5.16,5H26.84A1.16,1.16,0,0,1,28,6.16Z"/><path d="M29,26H23.82a3,3,0,0,0-5.64,0H3a1,1,0,0,0,0,2H18.18a3,3,0,0,0,5.64,0H29a1,1,0,0,0,0-2Zm-8,2a1,1,0,1,1,1-1A1,1,0,0,1,21,28Z"/><path d="M20.45,12.11l-6-3A1,1,0,0,0,13,10v6a1,1,0,0,0,.47.85A1,1,0,0,0,14,17a1,1,0,0,0,.45-.11l6-3a1,1,0,0,0,0-1.78ZM15,14.38V11.62L17.76,13Z"/></g></svg>