<svg xmlns="http://www.w3.org/2000/svg" viewBox="0 0 32 32"><g id="uniform"><path d="M24.89,5h-.61a2.44,2.44,0,0,0-.39-.52L21.71,2.29a1.15,1.15,0,0,0-.35-.22l-.13,0A1,1,0,0,0,21,2H11a1.43,1.43,0,0,0-.22,0,.8.8,0,0,1-.15,0,1.24,1.24,0,0,0-.34.22L8.11,4.48A2.44,2.44,0,0,0,7.72,5H7.11A3.12,3.12,0,0,0,4,8.11V26.89A3.12,3.12,0,0,0,7.11,30H24.89A3.12,3.12,0,0,0,28,26.89V8.11A3.12,3.12,0,0,0,24.89,5ZM22.53,6.4l-2.87,4.31L17.49,9.63l3.64-5.09,1.35,1.35A.41.41,0,0,1,22.53,6.4ZM16,8.28,12.94,4h6.12ZM9.52,5.89l1.35-1.35,3.64,5.09-2.17,1.08L9.47,6.4A.41.41,0,0,1,9.52,5.89ZM6,26.89V8.11A1.11,1.11,0,0,1,7.11,7h.45a2,2,0,0,0,.25.51l3.36,5A1,1,0,0,0,12,13a.93.93,0,0,0,.45-.11L15,11.62V28H7.11A1.11,1.11,0,0,1,6,26.89Zm20,0A1.11,1.11,0,0,1,24.89,28H17V11.62l2.55,1.27A.93.93,0,0,0,20,13a1,1,0,0,0,.83-.45l3.36-5A2,2,0,0,0,24.44,7h.45A1.11,1.11,0,0,1,26,8.11Z"/><path d="M12,16H9a1,1,0,0,0,0,2h3a1,1,0,0,0,0-2Z"/></g></svg>