<?xml version="1.0" encoding="UTF-8"?><svg id="Layer_1" xmlns="http://www.w3.org/2000/svg" viewBox="0 0 512 512"><defs><style>.cls-1{fill:#6c81f0;}.cls-1,.cls-2{stroke-width:0px;}.cls-2{fill:#f6ce5d;}</style></defs><rect class="cls-1" x=".13" y="-.02" width="511.87" height="511.87"/><circle class="cls-1" cx="256.07" cy="255.92" r="255.93"/><path class="cls-2" d="M414.86,155.58c-7.24-14.8-16.95-27.43-29.12-37.91-12.18-10.48-26.2-18.64-42.07-24.5-15.88-5.85-32.44-8.79-49.7-8.79h-161.35v358.76h96.16v-111.42h65.19c17.26,0,33.82-3.31,49.7-9.94,15.87-6.63,29.89-15.72,42.07-27.28,12.17-11.56,21.87-25.04,29.12-40.45,7.24-15.41,10.87-32.05,10.87-49.93s-3.62-33.75-10.87-48.54ZM272.09,264.58c-16.02,0-30.92-3.33-43.54-9.01l-40.57,20.8,21.15-32.9c-11.73-10.09-18.79-23.03-18.79-37.16,0-32.18,36.6-58.27,81.75-58.27,11.93,0,23.22,1.86,33.44,5.13,19.03,5.45,34.12,16.33,41.56,29.96,4.33,7.11,6.76,14.93,6.76,23.18,0,32.18-36.6,58.27-81.75,58.27Z"/></svg>