<?xml version="1.0" encoding="UTF-8"?><svg id="Layer_1" xmlns="http://www.w3.org/2000/svg" viewBox="0 0 64 64"><defs><style>.cls-1{fill:#6c81f0;}.cls-1,.cls-2,.cls-3{stroke-width:0px;}.cls-2{fill:#fff;}.cls-3{fill:gold;}</style></defs><rect class="cls-1" width="64" height="64"/><path class="cls-2" d="m29.42,59.54c-.54,0-1.16-.13-1.92-.41-1.06-.39-1.93-.99-2.59-1.8-.21-.26-.36-.57-.42-.9l-.43-2.3c-.02-.11-.03-.22-.03-.33-.03-.08-.08-.2-.15-.35-.47-.64-.8-1.51-1.04-2.68-.02-.08-.03-.16-.03-.24l-.5-6.84-.02-.48c-3.24-.36-4.48-2.22-4.94-3.48-.74-1.47-.81-2.67-.21-3.58l.26-.67c.05-.12.11-.24.18-.35.61-.96,1.83-2.08,4.27-2.27l-.18-1.87c0-.06,0-.13,0-.19v-1.22l-.07-.86c0-.12,0-.25,0-.37.03-.24,0-.53-.05-.87-.02-.12-.03-.24-.03-.36v-.35l-.14-1.72c0-.05,0-.11,0-.16v-1.27l-.06-.62c0-.07,0-.13,0-.2,0-1.5-.04-2.62-.09-3.44-.67.28-1.07.38-1.38.42-.13.02-.27.03-.41.03-.95,0-2.05-.42-3.57-1.35-.08-.05-.15-.1-.22-.15-.9-.73-1.31-1.53-1.48-2.2-1.04-1.58-1.33-3.04-.89-4.34.19-.64.61-1.34,1.38-2.29.36-.59,1.03-1.08,2.19-1.79,1.17-1.07,2.95-1.81,5.41-2.25l4.1-.59s.1-.01.14-.02l5.18-.36s.09,0,.14,0c.09,0,.17,0,.26.02l2.73.36c.29.04.58.14.82.3.07.01.18.03.34.04h.06c1.76,0,3.87.85,6.43,2.59.82.33,1.51.85,2.07,1.55l2.68,3.25c.24.27.45.62.73,1.22.16.33.38.73.67,1.18.13.21.22.44.27.67.49.84.82,1.47.99,2.01.31.52.56,1.23.8,2.27.27,1.18.36,2.01.28,2.68,0,.48-.07,1.07-.18,1.85-.38,2.61-1.07,4.55-2.1,5.93l-.86,1.59c-.03.06-.07.12-.11.18l-1.58,2.3c-.08.12-.18.24-.29.34l-.87.8c-1.9,2.09-4.23,3.73-6.94,4.88-.2.09-.42.17-.69.24l-1.66.55s-.09.03-.14.04l-1.26.32c.07,1.71.22,4.38.46,7.97.18,1.64.28,2.17.31,2.32.08.22.12.46.12.69,0,1.87-.12,3.06-.4,3.86-.35.99-.96,1.78-1.78,2.28-.71.43-1.66.67-3,.75-.18.03-.36.05-.56.05Zm3.2-40.73c.34,2.33.64,6.24.9,11.91.11-.09.26-.23.45-.46.08-.1.18-.2.28-.29,1.37-1.14,2.43-2.1,3.13-2.86l2.32-2.67c.06-.14.17-.42.33-.94.28-.84.46-1.54.55-2.09,0-.58-.04-.91-.07-1.07-.13-.18-.23-.39-.29-.6-.05-.11-.17-.37-.48-.97-.2-.13-.52-.32-1.01-.62l-1.86-.58c-.14-.04-.28-.1-.41-.18-.34-.2-1.36-.61-4.06-.76l.21,2.17Z"/><path class="cls-3" d="m22.57,7.39l4.03-.58,5.18-.36,2.73.36c.19.19.65.31,1.37.36,1.39-.05,3.26.75,5.62,2.38.58.19,1.06.53,1.44,1.01l2.74,3.31c.1.1.24.35.43.76.19.41.46.88.79,1.4-.1,0-.03.19.22.58.62,1.06.91,1.68.86,1.87.24.19.48.82.72,1.87.24,1.06.31,1.78.22,2.16.05.05,0,.6-.14,1.66-.34,2.3-.94,4.01-1.8,5.11l-.94,1.73-1.58,2.3-.94.86c-1.73,1.92-3.84,3.41-6.34,4.46-.1.05-.24.1-.43.14l-1.73.58-2.81.72c0,1.39.17,4.61.5,9.65.19,1.73.33,2.69.43,2.88,0,1.58-.1,2.65-.29,3.2-.19.55-.5.96-.94,1.22-.43.26-1.18.42-2.23.47-.29.1-.79.01-1.51-.25-.72-.26-1.3-.66-1.73-1.19l-.43-2.3c.1-.09-.05-.55-.43-1.37-.34-.38-.6-1.06-.79-2.02l-.5-6.84-.07-2.3c-2.78.19-4.46-.58-5.04-2.3-.48-.91-.58-1.51-.29-1.8l.36-.94c.58-.91,1.68-1.37,3.31-1.37h1.51c-.1-.1-.14-.43-.14-1.01l-.29-3.02v-1.3l-.07-.94c.05-.43.02-.91-.07-1.44v-.43l-.14-1.8v-1.37l-.07-.72c0-3.41-.19-5.57-.58-6.48-1.58.91-2.64,1.4-3.17,1.48-.53.07-1.42-.28-2.66-1.04-.53-.43-.82-.91-.86-1.44-.86-1.2-1.15-2.18-.86-2.95.1-.38.48-.98,1.15-1.8.05-.19.62-.62,1.73-1.3.86-.86,2.38-1.49,4.54-1.87Zm14.9,8.28c-1.25-.72-3.67-1.08-7.27-1.08l.43,4.46c.38,2.59.72,7.44,1.01,14.54.43-.1.72-.22.86-.36.38-.29.79-.43,1.22-.43.62-.14,1.22-.58,1.8-1.3,1.44-1.2,2.54-2.21,3.31-3.02l2.38-2.74c.14-.05.38-.59.72-1.62.34-1.03.55-1.88.65-2.56,0-1.39-.14-2.18-.43-2.38,0-.1-.29-.7-.86-1.8-.19-.14-.77-.5-1.73-1.08l-2.09-.65Z"/></svg>