<?xml version="1.0" encoding="UTF-8"?><svg id="Layer_1" xmlns="http://www.w3.org/2000/svg" viewBox="0 0 64 64"><defs><style>.cls-1{fill:#6c64a4;}.cls-1,.cls-2{stroke-width:0px;}.cls-2{fill:#f6ce5d;}</style></defs><circle class="cls-1" cx="32" cy="32" r="32"/><path class="cls-2" d="M51.85,19.45c-.91-1.85-2.12-3.43-3.64-4.74-1.52-1.31-3.28-2.33-5.26-3.06-1.99-.73-4.06-1.1-6.21-1.1h-20.17v44.86h12.02v-13.93h8.15c2.16,0,4.23-.41,6.21-1.24,1.98-.83,3.74-1.97,5.26-3.41,1.52-1.45,2.73-3.13,3.64-5.06.91-1.93,1.36-4.01,1.36-6.24s-.45-4.22-1.36-6.07ZM34,33.08c-2,0-3.87-.42-5.44-1.13l-5.07,2.6,2.64-4.11c-1.47-1.26-2.35-2.88-2.35-4.65,0-4.02,4.58-7.29,10.22-7.29,1.49,0,2.9.23,4.18.64,2.38.68,4.27,2.04,5.2,3.75.54.89.84,1.87.84,2.9,0,4.02-4.58,7.29-10.22,7.29Z"/></svg>