<?xml version="1.0" encoding="UTF-8"?><svg id="Layer_7" xmlns="http://www.w3.org/2000/svg" viewBox="0 0 64 64"><defs><style>.cls-1,.cls-2{stroke-width:0px;}.cls-2{fill:#fff;}</style></defs><path class="cls-2" d="m32.87,60.9c-3.26,0-6.41-.52-9.34-1.56-3-1.06-5.7-2.75-8.01-5.02-2.32-2.28-4.15-5.27-5.45-8.88-1.28-3.55-1.91-7.86-1.9-12.83.02-4.43.6-8.48,1.74-12.06,1.16-3.63,2.84-6.77,5-9.35,2.19-2.6,4.84-4.63,7.9-6.02,3.04-1.38,6.46-2.08,10.16-2.08,4.15,0,7.88.82,11.08,2.44,3.21,1.62,5.82,3.84,7.75,6.58,1.94,2.76,3.09,5.83,3.41,9.15l.21,2.19h-9.14c.36.18.71.38,1.06.58,2.68,1.61,4.8,3.85,6.29,6.65,1.48,2.77,2.22,5.97,2.2,9.49.02,4.1-.98,7.77-2.96,10.9-1.97,3.12-4.74,5.56-8.21,7.27-3.42,1.68-7.39,2.53-11.8,2.53Zm-.1-25.67c-.78,0-1.47.13-2.11.4-.63.26-1.16.62-1.62,1.1-.47.49-.84,1.06-1.11,1.74-.27.68-.42,1.44-.43,2.26.01,1.05.25,1.99.72,2.83.46.82,1.07,1.45,1.86,1.92.78.47,1.66.69,2.69.69s1.96-.23,2.75-.69c.79-.47,1.4-1.09,1.85-1.91.46-.82.67-1.75.66-2.84.01-1.15-.2-2.08-.65-2.9-.45-.81-1.06-1.43-1.85-1.9-.79-.47-1.7-.7-2.76-.7Zm.2-16.06c-2.24,0-3.76.9-4.8,2.83-.48.9-.87,1.93-1.17,3.09,1.37-1.04,2.94-1.86,4.66-2.45,1.75-.6,3.61-.94,5.53-1.01-.22-.79-.62-1.34-1.24-1.7-.86-.51-1.84-.76-2.98-.76Z"/><path class="cls-1" d="m32.87,58.9c-3.05,0-5.94-.48-8.68-1.44-2.74-.96-5.16-2.48-7.27-4.56-2.11-2.08-3.77-4.79-4.97-8.13-1.2-3.34-1.79-7.39-1.78-12.15.02-4.24.57-8.06,1.65-11.45,1.08-3.39,2.62-6.28,4.63-8.67,2-2.39,4.4-4.21,7.2-5.48,2.79-1.27,5.91-1.9,9.33-1.9,3.85,0,7.24.74,10.18,2.22s5.27,3.46,7.02,5.94c1.75,2.48,2.77,5.21,3.06,8.19h-14.01c-.32-1.48-1.07-2.57-2.24-3.26-1.17-.69-2.5-1.04-4-1.04-2.98,0-5.17,1.3-6.56,3.89-1.39,2.59-2.1,6-2.13,10.23h.31c.67-1.6,1.67-2.97,3.02-4.12,1.35-1.14,2.92-2.02,4.7-2.63,1.79-.61,3.68-.92,5.68-.92,3.17,0,5.94.72,8.32,2.15s4.23,3.39,5.56,5.88c1.33,2.49,1.99,5.33,1.97,8.54.02,3.75-.87,7.03-2.65,9.84-1.78,2.81-4.25,4.99-7.4,6.55-3.15,1.55-6.79,2.33-10.92,2.33Zm-.1-10.74c1.41,0,2.67-.32,3.77-.97,1.1-.65,1.96-1.53,2.58-2.66.62-1.12.92-2.4.91-3.84.02-1.45-.29-2.73-.91-3.85-.62-1.12-1.48-2-2.58-2.65-1.1-.65-2.36-.97-3.77-.97-1.04,0-2,.18-2.88.55-.88.37-1.64.89-2.29,1.56-.65.67-1.16,1.47-1.52,2.38-.37.91-.56,1.9-.58,2.98.02,1.43.34,2.71.97,3.84.63,1.12,1.49,2.01,2.58,2.66s2.33.97,3.71.97Z"/></svg>