<?xml version="1.0" encoding="UTF-8"?><svg id="Layer_1" xmlns="http://www.w3.org/2000/svg" viewBox="0 0 74.3 58.51"><defs><style>.cls-1,.cls-2{stroke-width:0px;}.cls-2{fill:#fff;}</style></defs><polygon class="cls-2" points="11.17 57.08 11.17 19.25 0 26.28 0 9.5 13.65 .72 28.68 .72 28.68 57.08 11.17 57.08"/><path class="cls-2" d="m50.33,58.51c-4.9-.02-9.21-1.24-12.81-3.63-3.6-2.39-6.4-5.85-8.33-10.3-1.88-4.34-2.83-9.58-2.81-15.58.02-6.01.98-11.22,2.85-15.48,1.93-4.37,4.73-7.75,8.33-10.06,3.59-2.3,7.89-3.46,12.77-3.46s9.19,1.17,12.79,3.47c3.61,2.31,6.42,5.7,8.35,10.07,1.89,4.26,2.83,9.46,2.82,15.47,0,6.02-.95,11.28-2.84,15.62-1.93,4.45-4.73,7.91-8.32,10.29-3.6,2.38-7.9,3.59-12.8,3.59h0Zm0-43.06c-1.01,0-2.53.29-3.99,2.75-1.28,2.17-1.95,5.8-1.98,10.81-.02,3.45.29,6.31.92,8.47.58,2,1.34,3.45,2.27,4.32.84.79,1.72,1.15,2.78,1.15s2.52-.3,4.02-2.86c1.31-2.24,1.96-5.97,1.95-11.09,0-3.39-.32-6.17-.94-8.26-.57-1.92-1.33-3.33-2.25-4.17-.83-.76-1.72-1.12-2.78-1.12Z"/><path class="cls-1" d="m26.68,2.72v52.36h-13.5V15.81h-.29l-10.88,6.85v-12.07L14.24,2.72h12.44Z"/><path class="cls-1" d="m50.34,56.51c-4.52-.02-8.42-1.12-11.71-3.3-3.29-2.18-5.82-5.33-7.6-9.43-1.78-4.11-2.66-9.03-2.65-14.78.02-5.76.91-10.65,2.68-14.68,1.77-4.02,4.3-7.08,7.58-9.18,3.28-2.1,7.18-3.15,11.7-3.15s8.42,1.05,11.71,3.16c3.29,2.11,5.82,5.17,7.6,9.19s2.66,8.91,2.65,14.65c0,5.78-.89,10.72-2.67,14.83-1.78,4.11-4.31,7.25-7.59,9.42-3.28,2.17-7.18,3.26-11.7,3.26Zm0-11.56c2.33,0,4.25-1.28,5.75-3.85,1.5-2.56,2.24-6.6,2.22-12.11,0-3.6-.34-6.54-1.02-8.82-.68-2.28-1.62-3.98-2.82-5.08-1.2-1.1-2.58-1.65-4.13-1.65-2.33,0-4.23,1.24-5.71,3.73-1.47,2.49-2.23,6.43-2.26,11.81-.02,3.66.32,6.68,1,9.04.68,2.36,1.62,4.1,2.83,5.23s2.59,1.69,4.14,1.69Z"/></svg>