<?xml version="1.0" encoding="UTF-8"?><svg id="Layer_6" xmlns="http://www.w3.org/2000/svg" viewBox="0 0 64 64"><defs><style>.cls-1,.cls-2{stroke-width:0px;}.cls-2{fill:#fff;}</style></defs><path class="cls-2" d="m31.85,60.54c-4.29,0-8.17-.78-11.53-2.32-3.42-1.57-6.16-3.77-8.14-6.55-2.01-2.83-3.05-6.12-3.09-9.78l-.02-2.02h17.77l.06,1.94c.03,1.21.46,2.11,1.35,2.81,1,.79,2.18,1.18,3.6,1.18,1.11,0,2.04-.22,2.86-.68.78-.44,1.38-1.05,1.84-1.87.46-.84.68-1.82.67-3,.01-1.24-.21-2.22-.67-3.05-.45-.81-1.05-1.42-1.84-1.86-.81-.45-1.75-.68-2.85-.68s-2.19.27-3.16.82c-.91.52-1.56,1.21-1.98,2.11l-.66,1.42-15.75-3.1L12.6,3.46h39.04v15.35h-23.69l-.4,4.51c.37-.24.76-.46,1.17-.68,2.29-1.19,4.96-1.8,7.93-1.8,3.47,0,6.62.83,9.37,2.45,2.74,1.62,4.94,3.89,6.53,6.74,1.59,2.84,2.38,6.14,2.36,9.79.02,3.99-.96,7.61-2.9,10.75-1.93,3.12-4.68,5.6-8.15,7.35-3.42,1.73-7.47,2.61-12.02,2.61Z"/><path class="cls-1" d="m31.85,58.54c-4.02,0-7.59-.71-10.7-2.13-3.11-1.42-5.56-3.39-7.34-5.89-1.78-2.51-2.69-5.39-2.72-8.64h13.81c.05,1.81.75,3.25,2.11,4.32,1.36,1.07,2.97,1.61,4.85,1.61,1.45,0,2.73-.31,3.83-.93,1.11-.62,1.98-1.5,2.61-2.65.63-1.14.94-2.47.92-3.99.02-1.53-.29-2.87-.92-4-.63-1.13-1.5-2.01-2.61-2.63-1.11-.62-2.39-.93-3.83-.93s-2.89.36-4.16,1.09-2.2,1.73-2.8,3l-12.48-2.45,2.04-28.84h35.18v11.35h-23.52l-1.02,11.56h.31c.82-1.58,2.23-2.9,4.24-3.95s4.35-1.57,7.01-1.57c3.12,0,5.9.72,8.35,2.17,2.45,1.45,4.38,3.45,5.8,6,1.42,2.55,2.13,5.48,2.11,8.81.02,3.65-.85,6.88-2.6,9.7-1.75,2.82-4.2,5.03-7.35,6.62-3.15,1.59-6.86,2.39-11.12,2.39Z"/></svg>