<?xml version="1.0" encoding="UTF-8"?><svg id="Layer_4" xmlns="http://www.w3.org/2000/svg" viewBox="0 0 64 64"><defs><style>.cls-1,.cls-2{stroke-width:0px;}.cls-2{fill:#fff;}</style></defs><path class="cls-2" d="m31.75,60.9c-4.39,0-8.35-.78-11.79-2.31-3.51-1.56-6.31-3.76-8.33-6.54-2.07-2.84-3.13-6.14-3.14-9.81v-2.01s18.29,0,18.29,0l.03,1.97c0,.58.17,1.06.52,1.52.39.51.94.91,1.68,1.22.8.34,1.77.51,2.86.51,1.01,0,1.9-.17,2.63-.52.68-.31,1.18-.73,1.54-1.26.33-.49.49-1.05.48-1.71,0-.65-.16-1.14-.52-1.59-.43-.54-1.08-.98-1.92-1.31-.94-.37-2.06-.55-3.33-.55h-7.32v-13.82h7.32c1.14,0,2.13-.18,2.96-.53.75-.32,1.31-.73,1.71-1.27.34-.47.5-.97.49-1.59.01-.69-.13-1.21-.42-1.65-.31-.48-.75-.85-1.33-1.13-.63-.31-1.4-.46-2.28-.46-1,0-1.89.17-2.64.51-.69.32-1.21.72-1.58,1.25-.35.49-.52,1.04-.53,1.69l-.03,1.97H9.49v-2.01c.03-3.61,1.04-6.85,3.03-9.64,1.94-2.73,4.63-4.9,7.99-6.44,3.3-1.51,7.12-2.28,11.34-2.28s7.86.72,11.07,2.14c3.29,1.45,5.9,3.49,7.79,6.06,1.93,2.64,2.9,5.68,2.88,9.06.04,3.48-1.19,6.4-3.65,8.67-.77.71-1.6,1.32-2.51,1.84,1.72.73,3.18,1.69,4.37,2.88,2.52,2.51,3.77,5.68,3.73,9.43.02,3.48-1.05,6.65-3.17,9.37-2.06,2.64-4.93,4.72-8.52,6.19-3.51,1.44-7.58,2.17-12.1,2.17Z"/><path class="cls-1" d="m31.74,58.9c-4.12,0-7.79-.71-10.98-2.13-3.2-1.42-5.71-3.39-7.53-5.89-1.82-2.51-2.74-5.39-2.76-8.64h14.32c.02,1.01.33,1.9.93,2.7.61.79,1.44,1.41,2.49,1.85s2.27.66,3.63.66,2.47-.23,3.48-.7c1.01-.47,1.79-1.12,2.35-1.96.56-.83.84-1.79.82-2.86.02-1.06-.3-1.99-.96-2.81-.66-.82-1.57-1.46-2.75-1.92-1.18-.46-2.53-.69-4.06-.69h-5.32v-9.82h5.32c1.41,0,2.66-.23,3.75-.69,1.08-.46,1.93-1.1,2.53-1.92.6-.82.9-1.76.88-2.81.02-1.02-.23-1.93-.74-2.71-.51-.78-1.22-1.4-2.14-1.84-.91-.44-1.96-.66-3.16-.66-1.3,0-2.45.23-3.46.69-1.01.46-1.81,1.1-2.39,1.92-.58.82-.88,1.76-.89,2.81h-13.6c.02-3.2.9-6.03,2.65-8.49,1.75-2.45,4.15-4.38,7.2-5.78,3.05-1.4,6.55-2.1,10.51-2.1s7.29.66,10.27,1.97c2.97,1.31,5.3,3.12,6.98,5.41,1.68,2.29,2.51,4.91,2.49,7.86.03,2.93-.97,5.34-3,7.21-2.04,1.88-4.62,2.98-7.73,3.32v.41c4.23.46,7.41,1.75,9.54,3.87,2.13,2.12,3.18,4.79,3.14,7.99.02,3.07-.9,5.79-2.75,8.16-1.85,2.37-4.42,4.23-7.7,5.57-3.28,1.35-7.06,2.02-11.34,2.02Z"/></svg>