<?xml version="1.0" encoding="UTF-8"?><svg id="Layer_10" xmlns="http://www.w3.org/2000/svg" viewBox="0 0 64 64"><defs><style>.cls-1,.cls-2{stroke-width:0px;}.cls-2{fill:#fff;}</style></defs><path class="cls-2" d="m31.03,60.9c-4.17,0-7.9-.82-11.1-2.44-3.22-1.63-5.83-3.86-7.75-6.63-1.93-2.78-3.07-5.91-3.39-9.31l-.21-2.19h9.15c-.35-.18-.69-.37-1.03-.57-2.67-1.6-4.78-3.83-6.28-6.62-1.48-2.76-2.24-5.92-2.26-9.41-.02-4.09.97-7.74,2.94-10.85,1.96-3.1,4.72-5.53,8.2-7.24,3.41-1.68,7.39-2.53,11.83-2.53,3.26,0,6.4.52,9.33,1.56,2.99,1.06,5.67,2.74,7.98,5,2.31,2.26,4.14,5.23,5.44,8.81,1.27,3.52,1.93,7.79,1.95,12.7.02,4.49-.55,8.59-1.69,12.18-1.16,3.65-2.84,6.81-5,9.41-2.19,2.63-4.86,4.66-7.92,6.05-3.05,1.38-6.48,2.08-10.2,2.08Zm-4.22-18.73c.31,1.19.87,1.65,1.27,1.89.85.52,1.81.77,2.95.77,2.25,0,3.78-.9,4.82-2.84.51-.96.92-2.07,1.22-3.34-1.39,1.06-2.98,1.9-4.73,2.5-1.75.6-3.61.94-5.54,1.01Zm4.43-24.33c-1.06,0-1.96.23-2.76.7-.8.47-1.4,1.09-1.85,1.89-.45.8-.66,1.7-.65,2.76.01,1.06.24,1.98.7,2.8.45.81,1.06,1.43,1.84,1.9.77.46,1.66.69,2.72.69.77,0,1.49-.13,2.12-.4.64-.27,1.18-.63,1.65-1.11.48-.49.85-1.05,1.12-1.72.26-.65.39-1.34.37-2.11-.01-1.07-.25-1.99-.71-2.81-.46-.81-1.07-1.43-1.87-1.9-.78-.47-1.66-.69-2.69-.69Z"/><path class="cls-1" d="m31.13,5.1c3.05,0,5.94.48,8.67,1.44,2.73.96,5.14,2.48,7.25,4.54,2.11,2.06,3.76,4.75,4.96,8.07,1.2,3.32,1.81,7.33,1.83,12.03.02,4.3-.52,8.15-1.6,11.57-1.08,3.42-2.62,6.33-4.63,8.73-2,2.4-4.41,4.24-7.21,5.51-2.8,1.27-5.93,1.9-9.37,1.9-3.87,0-7.27-.74-10.2-2.22-2.93-1.48-5.27-3.48-7.01-5.98-1.74-2.51-2.75-5.29-3.04-8.36h14.01c.34,1.58,1.09,2.73,2.25,3.44,1.16.71,2.49,1.06,3.99,1.06,3,0,5.2-1.3,6.58-3.9,1.39-2.6,2.09-6.07,2.11-10.42h-.31c-.66,1.6-1.67,2.97-3.02,4.12-1.35,1.14-2.92,2.02-4.71,2.63-1.79.61-3.68.92-5.68.92-3.15,0-5.92-.71-8.29-2.13s-4.22-3.38-5.55-5.86c-1.33-2.48-2-5.31-2.02-8.48-.02-3.72.86-6.97,2.63-9.77,1.77-2.8,4.23-4.97,7.39-6.52,3.15-1.55,6.8-2.33,10.94-2.33Zm.1,10.74c-1.41,0-2.67.32-3.77.97s-1.96,1.53-2.58,2.63c-.62,1.11-.92,2.36-.91,3.76.02,1.4.34,2.65.96,3.76.62,1.11,1.47,1.99,2.56,2.63,1.08.65,2.33.97,3.75.97,1.04,0,2-.18,2.89-.55.89-.37,1.66-.89,2.31-1.56.66-.67,1.17-1.46,1.54-2.35.37-.9.54-1.86.52-2.9-.02-1.4-.34-2.65-.97-3.76-.63-1.11-1.49-1.99-2.58-2.63-1.09-.65-2.33-.97-3.71-.97Z"/></svg>