<?xml version="1.0" encoding="UTF-8"?><svg id="Layer_3" xmlns="http://www.w3.org/2000/svg" viewBox="0 0 64 64"><defs><style>.cls-1,.cls-2{stroke-width:0px;}.cls-2{fill:#fff;}</style></defs><path class="cls-2" d="m10.41,60.54v-13.17l20.26-16.76c1.23-1.02,2.3-2,3.18-2.89.78-.79,1.38-1.6,1.79-2.42.36-.73.54-1.53.54-2.45,0-.99-.19-1.78-.57-2.42-.38-.64-.89-1.11-1.57-1.46-.72-.37-1.56-.56-2.56-.56s-1.82.18-2.53.56c-.64.34-1.13.83-1.49,1.5-.39.72-.58,1.66-.58,2.79v2H9.39v-2c0-4.04.94-7.6,2.78-10.57,1.85-2.98,4.49-5.29,7.85-6.89,3.27-1.55,7.13-2.34,11.47-2.34s8.39.73,11.7,2.17c3.41,1.48,6.09,3.61,7.98,6.33,1.91,2.75,2.87,6,2.87,9.65,0,2.27-.47,4.55-1.41,6.77-.93,2.22-2.52,4.55-4.86,7.15-2.23,2.47-5.4,5.43-9.44,8.79l-1.03.86h17.3v15.35H10.41Z"/><path class="cls-1" d="m12.41,58.54v-10.23l19.54-16.16c1.29-1.07,2.41-2.08,3.34-3.03.93-.95,1.64-1.92,2.15-2.93.5-1.01.75-2.12.75-3.35,0-1.35-.29-2.5-.86-3.45-.57-.95-1.36-1.69-2.37-2.21s-2.16-.78-3.48-.78-2.47.26-3.46.79c-1,.53-1.77,1.3-2.31,2.33-.54,1.02-.82,2.27-.82,3.73h-13.5c0-3.68.83-6.85,2.48-9.51s3.99-4.7,7-6.14c3.02-1.43,6.55-2.15,10.61-2.15s7.83.67,10.9,2.01c3.08,1.34,5.46,3.22,7.13,5.64,1.68,2.42,2.52,5.26,2.52,8.51,0,2.01-.42,4.01-1.25,6-.84,1.99-2.34,4.18-4.5,6.58-2.17,2.4-5.24,5.27-9.23,8.59l-4.91,4.09v.31h20.46v11.35H12.41Z"/></svg>