<?xml version="1.0" encoding="UTF-8"?><svg id="Layer_9" xmlns="http://www.w3.org/2000/svg" viewBox="0 0 64 64"><defs><style>.cls-1,.cls-2{stroke-width:0px;}.cls-2{fill:#fff;}</style></defs><path class="cls-2" d="m32,60.9c-4.46,0-8.52-.71-12.05-2.11-3.61-1.43-6.51-3.42-8.61-5.91-2.21-2.61-3.32-5.61-3.32-8.91,0-2.53.64-4.87,1.91-6.97,1.23-2.04,2.92-3.76,5.01-5.11.54-.35,1.1-.66,1.67-.95-1.21-.73-2.3-1.63-3.27-2.71-2.25-2.51-3.39-5.51-3.39-8.92,0-3.2,1.03-6.09,3.06-8.59,1.94-2.39,4.61-4.29,7.93-5.64,3.24-1.32,6.96-1.99,11.06-1.99s7.82.67,11.06,2c3.32,1.36,5.98,3.26,7.93,5.65,2.03,2.5,3.06,5.38,3.06,8.56,0,3.43-1.16,6.44-3.44,8.94-.97,1.07-2.06,1.96-3.25,2.68.58.29,1.14.6,1.68.95,2.09,1.35,3.78,3.06,5.02,5.1,1.28,2.1,1.93,4.44,1.93,6.97,0,3.3-1.12,6.3-3.32,8.91-2.11,2.5-5.01,4.48-8.62,5.91-3.54,1.4-7.59,2.11-12.05,2.11Zm0-22.4c-1.02,0-1.89.19-2.66.59-.74.38-1.3.87-1.71,1.52-.4.61-.59,1.31-.59,2.14s.2,1.54.6,2.18c.42.66.98,1.17,1.73,1.57.76.4,1.62.6,2.63.6s1.89-.19,2.65-.59c.73-.38,1.28-.89,1.7-1.56.41-.64.6-1.36.6-2.2s-.19-1.52-.59-2.14c-.42-.65-.97-1.14-1.71-1.52-.76-.39-1.63-.58-2.66-.58Zm0-21.17c-.86,0-1.59.16-2.23.5-.61.32-1.08.74-1.42,1.28-.33.52-.49,1.13-.49,1.84s.16,1.34.5,1.88c.34.56.81,1,1.43,1.33.64.35,1.36.51,2.21.51s1.59-.16,2.22-.5c.61-.33,1.07-.76,1.41-1.32.34-.56.5-1.18.5-1.9s-.16-1.32-.49-1.84c-.34-.55-.8-.97-1.41-1.29-.63-.34-1.37-.5-2.24-.5Z"/><path class="cls-1" d="m32,58.9c-4.23,0-8-.66-11.31-1.97s-5.92-3.09-7.82-5.34c-1.9-2.25-2.85-4.79-2.85-7.62,0-2.16.54-4.14,1.62-5.93,1.08-1.79,2.54-3.28,4.38-4.46,1.84-1.18,3.89-1.95,6.16-2.29v-.41c-2.98-.51-5.43-1.84-7.35-3.98-1.92-2.14-2.88-4.67-2.88-7.58,0-2.74.87-5.19,2.61-7.33,1.74-2.14,4.12-3.82,7.13-5.05,3.02-1.23,6.45-1.84,10.3-1.84s7.29.62,10.3,1.85c3.02,1.24,5.39,2.92,7.13,5.06,1.74,2.14,2.61,4.57,2.61,7.3,0,2.93-.97,5.46-2.91,7.59-1.94,2.13-4.38,3.45-7.31,3.96v.41c2.25.34,4.29,1.1,6.14,2.29,1.84,1.19,3.31,2.67,4.4,4.46,1.09,1.79,1.64,3.77,1.64,5.93,0,2.83-.95,5.37-2.85,7.62-1.9,2.25-4.51,4.03-7.82,5.34s-7.09,1.97-11.31,1.97Zm0-9.82c1.35,0,2.54-.27,3.58-.82,1.04-.55,1.86-1.3,2.47-2.26.6-.96.91-2.05.91-3.26s-.3-2.28-.91-3.22c-.61-.94-1.43-1.67-2.47-2.21s-2.23-.81-3.58-.81-2.52.27-3.57.81c-1.05.54-1.88,1.27-2.48,2.21-.61.94-.91,2.01-.91,3.22s.3,2.29.91,3.25c.6.95,1.43,1.71,2.48,2.26,1.05.55,2.24.83,3.57.83Zm0-22.4c1.19,0,2.25-.25,3.17-.74.92-.49,1.65-1.18,2.17-2.05.53-.87.79-1.85.79-2.94s-.26-2.06-.79-2.9-1.25-1.51-2.17-1.99c-.92-.49-1.98-.73-3.17-.73s-2.23.24-3.16.73-1.66,1.15-2.19,1.99-.79,1.81-.79,2.9.26,2.07.79,2.93c.53.86,1.26,1.54,2.19,2.05.93.5,1.98.75,3.16.75Z"/></svg>